<svg xmlns="http://www.w3.org/2000/svg" viewBox="0 0 24 24" fill="none">
  <path d="M19.4 15a1.7 1.7 0 0 0 .3 1.9l.1.1-2 3.4-.2-.1a1.7 1.7 0 0 0-1.9.3l-.2.1-3.5-2-3.5 2-.2-.1a1.7 1.7 0 0 0-1.9-.3l-.2.1-2-3.4.1-.1a1.7 1.7 0 0 0 .3-1.9l-.1-.2v-4l.1-.2a1.7 1.7 0 0 0-.3-1.9l-.1-.1 2-3.4.2.1a1.7 1.7 0 0 0 1.9-.3l.2-.1 3.5 2 3.5-2 .2.1a1.7 1.7 0 0 0 1.9.3l.2-.1 2 3.4-.1.1a1.7 1.7 0 0 0-.3 1.9l.1.2v4z" stroke="#1677ff" stroke-width="1.5"/>
  <circle cx="12" cy="12" r="3.2" stroke="#1677ff" stroke-width="1.5"/>
</svg>
